<?xml version="1.0" encoding="utf-8"?>
<!-- Generator: Adobe Illustrator 27.5.0, SVG Export Plug-In . SVG Version: 6.00 Build 0)  -->
<svg version="1.1" id="Layer_1" xmlns="http://www.w3.org/2000/svg" xmlns:xlink="http://www.w3.org/1999/xlink" x="0px" y="0px"
	 viewBox="-24.062 -92.32 83.736 73.248" style="enable-background:new -24.062 -92.32 83.736 73.248;" xml:space="preserve">
<rect x="-24.062" y="-92.321" style="fill:#FFFFFF;" width="83.736" height="73.25"/>
<g>
	<g>
		<g>
			<g>
				<path style="fill:#63635A;" d="M19.735-35.165c0.114-0.065,0.247-0.093,0.395-0.093c0.31,0,0.467,0.154,0.467,0.461v0.664
					h-0.103v-0.185l-0.009,0.007c-0.005,0.004-0.008,0.012-0.017,0.023c-0.008,0.005-0.015,0.013-0.022,0.026
					c-0.017,0.009-0.021,0.023-0.042,0.032c-0.011,0.013-0.028,0.023-0.043,0.037c-0.018,0.015-0.038,0.025-0.058,0.034
					c-0.023,0.013-0.047,0.024-0.068,0.031c-0.024,0.002-0.051,0.011-0.079,0.021c-0.03,0.007-0.058,0.007-0.09,0.007
					c-0.137,0-0.243-0.039-0.318-0.107c-0.078-0.07-0.116-0.16-0.116-0.264c0-0.109,0.043-0.191,0.131-0.252
					c0.087-0.068,0.199-0.103,0.34-0.103h0.382c0-0.165-0.059-0.271-0.197-0.318c-0.038-0.012-0.084-0.02-0.136-0.02
					c-0.049,0-0.093,0-0.137,0.008c-0.043,0.004-0.078,0.012-0.104,0.02c-0.03,0.01-0.051,0.017-0.069,0.024
					c-0.018,0.008-0.031,0.019-0.046,0.026c-0.019,0.011-0.021,0.014-0.027,0.014L19.735-35.165z M20.493-34.595
					c0-0.067,0-0.109,0-0.124c-0.025,0-0.054,0-0.084,0c-0.033,0-0.065,0-0.096,0c-0.026,0-0.063,0-0.106,0
					c-0.097,0-0.18,0.004-0.247,0.015c-0.067,0.013-0.124,0.042-0.158,0.08c-0.016,0.021-0.027,0.038-0.035,0.058
					c-0.012,0.029-0.018,0.061-0.02,0.091c-0.006,0.029,0.001,0.063,0.01,0.094c0.011,0.033,0.029,0.059,0.053,0.088
					c0.021,0.02,0.053,0.042,0.101,0.062c0.042,0.017,0.098,0.026,0.158,0.026c0.045,0,0.083-0.002,0.12-0.015
					c0.035-0.008,0.066-0.017,0.092-0.024c0.027-0.014,0.051-0.03,0.072-0.038c0.023-0.017,0.041-0.035,0.05-0.051
					c0.019-0.016,0.027-0.028,0.044-0.049c0.007-0.017,0.014-0.031,0.02-0.046c0.002-0.019,0.012-0.03,0.014-0.042
					c0.005-0.016,0.005-0.022,0.014-0.036C20.493-34.505,20.493-34.537,20.493-34.595z"/>
				<path style="fill:#63635A;" d="M21.707-35.242h0.389v0.092h-0.389v0.531v0.006v0.012c0,0.009,0,0.029,0,0.053
					c-0.002,0.033-0.002,0.049-0.002,0.063c0,0.016,0.002,0.03,0.002,0.055c0,0.021,0.007,0.044,0.009,0.053
					c0.006,0.02,0.014,0.029,0.017,0.051c0.014,0.017,0.02,0.033,0.034,0.045c0.071,0.081,0.184,0.091,0.331,0.038l0.006,0.1
					l-0.021,0.002c-0.006,0.005-0.017,0.005-0.021,0.01c-0.006,0-0.014,0-0.031,0.007c-0.013,0.002-0.024,0.002-0.037,0.002
					c-0.012,0.009-0.026,0.009-0.043,0.009c-0.018,0-0.039,0-0.05,0c-0.016,0-0.034-0.009-0.05-0.011
					c-0.018-0.007-0.032-0.007-0.05-0.017c-0.017-0.009-0.034-0.015-0.054-0.025c-0.018-0.009-0.031-0.026-0.052-0.04
					c-0.028-0.029-0.052-0.074-0.071-0.127c-0.011-0.069-0.023-0.107-0.024-0.135c0-0.031,0-0.079,0-0.132v-0.018v-0.531H21.44
					v-0.092h0.159v-0.362h0.107V-35.242z"/>
				<path style="fill:#63635A;" d="M22.299-35.165c0.118-0.065,0.246-0.093,0.397-0.093c0.309,0,0.464,0.154,0.464,0.461v0.664
					h-0.107v-0.185l-0.006,0.007c-0.007,0.004-0.007,0.012-0.019,0.023c-0.008,0.005-0.011,0.013-0.023,0.026
					c-0.008,0.009-0.023,0.023-0.034,0.032c-0.015,0.013-0.03,0.023-0.048,0.037c-0.02,0.015-0.035,0.025-0.058,0.034
					c-0.021,0.013-0.047,0.024-0.069,0.031c-0.021,0.002-0.047,0.011-0.076,0.021c-0.03,0.007-0.063,0.007-0.092,0.007
					c-0.133,0-0.243-0.039-0.317-0.107c-0.077-0.07-0.117-0.16-0.117-0.264c0-0.109,0.04-0.191,0.133-0.252
					c0.088-0.068,0.198-0.103,0.339-0.103h0.382c0-0.165-0.065-0.271-0.196-0.318c-0.037-0.012-0.082-0.02-0.136-0.02
					c-0.05,0-0.098,0-0.139,0.008c-0.04,0.004-0.078,0.012-0.104,0.02c-0.027,0.01-0.048,0.017-0.068,0.024
					c-0.018,0.008-0.03,0.019-0.048,0.026c-0.012,0.011-0.018,0.014-0.02,0.014L22.299-35.165z M23.057-34.595
					c0-0.067,0-0.109,0-0.124c-0.028,0-0.054,0-0.086,0c-0.03,0-0.059,0-0.09,0s-0.067,0-0.111,0c-0.098,0-0.177,0.004-0.245,0.015
					c-0.07,0.013-0.125,0.042-0.161,0.08c-0.014,0.021-0.025,0.038-0.037,0.058c-0.01,0.029-0.013,0.061-0.016,0.091
					c-0.003,0.029,0,0.063,0.009,0.094c0.013,0.033,0.03,0.059,0.05,0.088c0.024,0.02,0.058,0.042,0.103,0.062
					c0.046,0.017,0.096,0.026,0.163,0.026c0.045,0,0.08-0.002,0.116-0.015c0.034-0.008,0.063-0.017,0.093-0.024
					c0.027-0.014,0.051-0.03,0.071-0.038c0.021-0.017,0.041-0.035,0.056-0.051c0.012-0.016,0.024-0.028,0.034-0.049
					c0.013-0.017,0.016-0.031,0.023-0.046c0.01-0.019,0.012-0.03,0.012-0.042c0.007-0.016,0.007-0.022,0.013-0.036
					C23.055-34.505,23.057-34.537,23.057-34.595z"/>
				<path style="fill:#63635A;" d="M24.552-34.306L24.552-34.306c-0.004,0.03-0.006,0.069-0.014,0.13
					c-0.006,0.044-0.023,0.092-0.052,0.134c-0.028,0.05-0.068,0.094-0.111,0.131c-0.048,0.038-0.102,0.071-0.167,0.097
					c-0.066,0.031-0.134,0.041-0.205,0.041c-0.144,0-0.283-0.041-0.423-0.109v-0.138c0.09,0.097,0.224,0.147,0.415,0.147
					c0.061,0,0.116-0.01,0.162-0.027c0.047-0.017,0.082-0.033,0.109-0.053c0.033-0.015,0.059-0.046,0.081-0.081
					c0.027-0.031,0.043-0.057,0.052-0.08c0.011-0.027,0.019-0.053,0.028-0.091c0.01-0.031,0.01-0.052,0.01-0.068
					c0.003-0.004,0.003-0.018,0.005-0.036v-0.165c-0.02,0.029-0.043,0.057-0.067,0.084c-0.027,0.03-0.058,0.057-0.093,0.085
					c-0.041,0.024-0.079,0.049-0.133,0.063c-0.054,0.016-0.1,0.024-0.154,0.024c-0.063,0-0.119-0.012-0.186-0.031
					c-0.061-0.024-0.118-0.055-0.176-0.097c-0.054-0.043-0.098-0.098-0.121-0.167c-0.038-0.071-0.049-0.147-0.049-0.238
					c0-0.087,0.016-0.159,0.049-0.235c0.039-0.081,0.098-0.144,0.182-0.199c0.079-0.054,0.169-0.087,0.267-0.087
					c0.058,0,0.111,0.012,0.163,0.021c0.049,0.016,0.084,0.028,0.115,0.042c0.034,0.018,0.06,0.044,0.095,0.069
					c0.028,0.024,0.049,0.051,0.059,0.061c0.013,0.016,0.025,0.035,0.04,0.057c0.005,0.006,0.008,0.016,0.01,0.016v-0.232h0.109
					V-34.306z M23.996-34.317c0.116,0,0.218-0.041,0.313-0.118c0.094-0.09,0.14-0.184,0.14-0.304c0-0.117-0.046-0.222-0.14-0.308
					c-0.095-0.086-0.196-0.13-0.313-0.13c-0.119,0-0.222,0.044-0.307,0.127c-0.084,0.081-0.127,0.187-0.127,0.304
					c0,0.114,0.043,0.221,0.127,0.305C23.774-34.358,23.876-34.317,23.996-34.317z"/>
				<path style="fill:#63635A;" d="M24.985-34.631v0.013v0.006c0,0.01-0.002,0.026-0.005,0.064c0,0.043,0,0.069,0,0.081
					c0.003,0.01,0.007,0.032,0.009,0.059c0.005,0.027,0.009,0.051,0.013,0.067c0.016,0.017,0.027,0.035,0.043,0.052
					c0.065,0.082,0.18,0.093,0.328,0.038l0.006,0.095c-0.022,0.006-0.036,0.013-0.041,0.015c-0.007,0.003-0.02,0.005-0.032,0.01
					c-0.009,0-0.026,0-0.036,0c-0.009,0.007-0.027,0.007-0.044,0.007c-0.02,0.002-0.031,0-0.047,0
					c-0.017-0.007-0.035-0.007-0.053-0.007c-0.016-0.005-0.032-0.01-0.051-0.019c-0.015-0.006-0.03-0.015-0.049-0.025
					c-0.017-0.015-0.034-0.029-0.051-0.044c-0.022-0.017-0.043-0.037-0.052-0.065c-0.016-0.032-0.021-0.057-0.032-0.089
					c-0.004-0.03-0.007-0.054-0.011-0.084c-0.005-0.032-0.01-0.063-0.005-0.08c0-0.03,0-0.049-0.005-0.075v-0.019v-1.099h0.114
					V-34.631z"/>
				<path style="fill:#63635A;" d="M25.622-35.585h0.146v0.182h-0.146V-35.585z M25.747-35.036v-0.206h-0.105v1.109h0.105V-35.036z"
					/>
				<path style="fill:#63635A;" d="M26.18-34.132h-0.104v-1.109h0.104v0.188c0.089-0.144,0.218-0.222,0.373-0.222
					c0.154,0,0.271,0.045,0.353,0.133c0.083,0.084,0.122,0.2,0.122,0.353v0.657h-0.108v-0.612c0-0.28-0.124-0.423-0.38-0.425
					c-0.17,0-0.284,0.097-0.359,0.289V-34.132z"/>
				<path style="fill:#63635A;" d="M27.453-34.643c0.008,0.048,0.016,0.095,0.031,0.143c0.025,0.059,0.059,0.109,0.101,0.152
					c0.036,0.05,0.085,0.078,0.145,0.104c0.059,0.024,0.117,0.038,0.178,0.038c0.069,0,0.132-0.015,0.183-0.038
					c0.039-0.014,0.071-0.038,0.098-0.06v0.124c-0.02,0.013-0.034,0.02-0.055,0.023c-0.067,0.033-0.147,0.052-0.231,0.052
					c-0.082,0-0.156-0.019-0.225-0.048c-0.069-0.027-0.132-0.075-0.181-0.123c-0.052-0.057-0.091-0.115-0.119-0.185
					c-0.024-0.071-0.046-0.143-0.046-0.228v-0.001c0-0.074,0.021-0.15,0.046-0.22c0.028-0.066,0.067-0.13,0.119-0.185
					c0.051-0.055,0.115-0.099,0.183-0.13c0.073-0.032,0.149-0.05,0.229-0.05c0.036,0,0.071,0.012,0.115,0.02
					c0.034,0.014,0.073,0.035,0.117,0.062c0.045,0.032,0.083,0.072,0.116,0.112c0.037,0.046,0.064,0.107,0.087,0.183
					c0.025,0.075,0.032,0.16,0.032,0.256H27.453z M27.902-35.169c-0.064,0-0.121,0.016-0.177,0.037
					c-0.063,0.022-0.108,0.062-0.146,0.101c-0.041,0.047-0.069,0.096-0.095,0.151c-0.016,0.052-0.023,0.091-0.031,0.142h0.812
					c0-0.025-0.011-0.08-0.032-0.149c-0.016-0.047-0.037-0.088-0.055-0.121c-0.024-0.037-0.048-0.062-0.065-0.082
					c-0.022-0.019-0.046-0.033-0.072-0.043c-0.032-0.016-0.056-0.02-0.069-0.027c-0.009,0-0.033-0.006-0.053-0.006
					C27.911-35.167,27.908-35.169,27.902-35.169z"/>
				<path style="fill:#63635A;" d="M30.349-34.306L30.349-34.306c-0.001,0.03-0.011,0.069-0.015,0.13
					c-0.005,0.044-0.02,0.092-0.051,0.134c-0.028,0.05-0.063,0.094-0.111,0.131c-0.048,0.038-0.098,0.071-0.168,0.097
					c-0.063,0.031-0.131,0.041-0.203,0.041c-0.144,0-0.282-0.041-0.425-0.109v-0.138c0.085,0.097,0.227,0.147,0.417,0.147
					c0.06,0,0.11-0.01,0.152-0.027c0.057-0.017,0.089-0.033,0.12-0.053c0.026-0.015,0.059-0.046,0.078-0.081
					c0.028-0.031,0.04-0.057,0.051-0.08c0.011-0.027,0.025-0.053,0.03-0.091c0.005-0.031,0.011-0.052,0.014-0.068
					c0-0.004,0-0.018,0-0.036v-0.165c-0.017,0.029-0.044,0.057-0.066,0.084c-0.028,0.03-0.059,0.057-0.092,0.085
					c-0.046,0.024-0.084,0.049-0.136,0.063c-0.052,0.016-0.095,0.024-0.152,0.024c-0.061,0-0.121-0.012-0.187-0.031
					c-0.058-0.024-0.119-0.055-0.176-0.097c-0.054-0.043-0.096-0.098-0.13-0.167c-0.028-0.071-0.044-0.147-0.044-0.238
					c0-0.087,0.021-0.159,0.06-0.235c0.032-0.081,0.094-0.144,0.177-0.199c0.078-0.054,0.172-0.087,0.271-0.087
					c0.054,0,0.104,0.012,0.154,0.021c0.05,0.016,0.091,0.028,0.117,0.042c0.04,0.018,0.065,0.044,0.092,0.069
					c0.029,0.024,0.052,0.051,0.06,0.061c0.011,0.016,0.026,0.035,0.044,0.057c0.006,0.006,0.009,0.016,0.009,0.016v-0.232h0.11
					V-34.306z M29.787-34.317c0.117,0,0.222-0.041,0.32-0.118c0.09-0.09,0.135-0.184,0.135-0.304c0-0.117-0.045-0.222-0.135-0.308
					c-0.099-0.086-0.203-0.13-0.32-0.13c-0.115,0-0.22,0.044-0.304,0.127c-0.083,0.081-0.122,0.187-0.122,0.304
					c0,0.114,0.039,0.221,0.122,0.305C29.567-34.358,29.671-34.317,29.787-34.317z"/>
				<path style="fill:#63635A;" d="M31.225-34.105c-0.084,0-0.16-0.019-0.232-0.048c-0.06-0.027-0.126-0.075-0.175-0.123
					c-0.053-0.057-0.094-0.115-0.121-0.185c-0.028-0.071-0.042-0.143-0.042-0.228v-0.001c0-0.074,0.014-0.15,0.042-0.22
					c0.027-0.066,0.068-0.13,0.121-0.185c0.049-0.055,0.115-0.099,0.175-0.13c0.079-0.032,0.155-0.05,0.238-0.05
					c0.078,0,0.154,0.018,0.228,0.05c0.071,0.031,0.13,0.073,0.176,0.126c0.054,0.053,0.094,0.114,0.122,0.187
					c0.027,0.062,0.036,0.141,0.036,0.219v0.004c0,0.077-0.009,0.153-0.036,0.223c-0.028,0.069-0.068,0.133-0.122,0.189
					c-0.046,0.05-0.112,0.098-0.176,0.125C31.383-34.124,31.306-34.105,31.225-34.105z M31.231-34.206
					c0.061,0,0.123-0.015,0.185-0.038c0.051-0.03,0.101-0.06,0.138-0.104c0.041-0.043,0.078-0.093,0.094-0.152
					c0.026-0.056,0.037-0.118,0.037-0.188v-0.001c0-0.063-0.011-0.129-0.037-0.19c-0.021-0.056-0.057-0.108-0.098-0.155
					c-0.036-0.037-0.083-0.074-0.146-0.099c-0.054-0.02-0.117-0.035-0.179-0.035c-0.064,0-0.128,0.016-0.184,0.037
					c-0.055,0.022-0.104,0.062-0.146,0.101c-0.03,0.047-0.067,0.096-0.096,0.151c-0.018,0.057-0.028,0.122-0.028,0.187v0.004
					c0,0.071,0.011,0.134,0.034,0.19c0.024,0.059,0.06,0.109,0.098,0.152c0.037,0.05,0.091,0.078,0.146,0.104
					C31.105-34.22,31.163-34.206,31.231-34.206z"/>
				<path style="fill:#63635A;" d="M32.213-34.643c0.009,0.048,0.02,0.095,0.039,0.143c0.018,0.059,0.056,0.109,0.1,0.152
					c0.03,0.05,0.088,0.078,0.146,0.104c0.052,0.024,0.115,0.038,0.17,0.038c0.071,0,0.131-0.015,0.187-0.038
					c0.041-0.014,0.072-0.038,0.107-0.06v0.124c-0.025,0.013-0.047,0.02-0.059,0.023c-0.07,0.033-0.152,0.052-0.235,0.052
					c-0.081,0-0.156-0.019-0.228-0.048c-0.068-0.027-0.128-0.075-0.176-0.123c-0.052-0.057-0.094-0.115-0.123-0.185
					c-0.025-0.071-0.045-0.143-0.045-0.228v-0.001c0-0.074,0.02-0.15,0.045-0.22c0.029-0.066,0.071-0.13,0.123-0.185
					c0.048-0.055,0.113-0.099,0.181-0.13c0.068-0.032,0.142-0.05,0.223-0.05c0.042,0,0.079,0.012,0.113,0.02
					c0.039,0.014,0.08,0.035,0.126,0.062c0.04,0.032,0.079,0.072,0.114,0.112c0.039,0.046,0.067,0.107,0.089,0.183
					c0.021,0.075,0.034,0.16,0.034,0.256H32.213z M32.667-35.169c-0.061,0-0.124,0.016-0.181,0.037
					c-0.057,0.022-0.104,0.062-0.147,0.101c-0.031,0.047-0.068,0.096-0.087,0.151c-0.02,0.052-0.03,0.091-0.039,0.142h0.815
					c0-0.025-0.014-0.08-0.027-0.149c-0.02-0.047-0.04-0.088-0.057-0.121c-0.03-0.037-0.049-0.062-0.069-0.082
					c-0.021-0.019-0.043-0.033-0.077-0.043c-0.026-0.016-0.048-0.02-0.065-0.027c-0.013,0-0.027-0.006-0.052-0.006
					C32.674-35.167,32.667-35.169,32.667-35.169z"/>
				<path style="fill:#63635A;" d="M34.069-35.053c-0.009-0.005-0.024-0.017-0.042-0.028c-0.018-0.01-0.053-0.028-0.104-0.043
					c-0.054-0.025-0.104-0.029-0.149-0.043c-0.039-0.009-0.099,0-0.147,0.016c-0.056,0.018-0.097,0.042-0.134,0.094
					c-0.028,0.053-0.033,0.102-0.015,0.148c0.028,0.042,0.063,0.069,0.115,0.086c0.055,0.02,0.11,0.041,0.181,0.065
					c0.064,0.024,0.129,0.043,0.19,0.068c0.051,0.023,0.105,0.058,0.141,0.104c0.036,0.05,0.051,0.102,0.045,0.174
					c-0.009,0.088-0.037,0.161-0.099,0.207c-0.053,0.049-0.111,0.08-0.188,0.091c-0.073,0.01-0.148,0-0.225-0.009
					c-0.074-0.014-0.143-0.033-0.202-0.053c-0.059-0.029-0.101-0.056-0.119-0.081l0.052-0.091c0.009,0.007,0.034,0.021,0.06,0.034
					c0.027,0.017,0.07,0.038,0.142,0.063c0.077,0.031,0.133,0.044,0.193,0.044c0.098,0,0.162-0.024,0.211-0.066
					c0.04-0.04,0.064-0.1,0.064-0.167c0-0.044-0.024-0.079-0.058-0.113c-0.036-0.025-0.09-0.049-0.137-0.07
					c-0.052-0.018-0.11-0.036-0.195-0.055c-0.104-0.023-0.186-0.066-0.24-0.135c-0.052-0.066-0.069-0.145-0.04-0.226
					c0.025-0.081,0.077-0.143,0.162-0.186c0.08-0.038,0.166-0.056,0.255-0.038c0.051,0.006,0.104,0.022,0.16,0.038
					c0.052,0.023,0.099,0.043,0.131,0.061l0.044,0.025L34.069-35.053z"/>
				<path style="fill:#63635A;" d="M35.135-35.046c0.017-0.023,0.029-0.045,0.055-0.066c0.014-0.021,0.043-0.049,0.077-0.071
					c0.031-0.027,0.075-0.046,0.122-0.064c0.043-0.015,0.105-0.026,0.159-0.026c0.074,0,0.142,0.018,0.205,0.045
					c0.055,0.034,0.104,0.068,0.134,0.118c0.03,0.046,0.056,0.103,0.073,0.151c0.017,0.058,0.022,0.11,0.022,0.171v0.657h-0.105
					v-0.632c0-0.012,0-0.018,0-0.032c0-0.003-0.006-0.027-0.006-0.054c-0.01-0.03-0.01-0.053-0.014-0.08
					c-0.008-0.026-0.02-0.054-0.034-0.089c-0.02-0.027-0.04-0.052-0.063-0.072c-0.025-0.026-0.061-0.043-0.104-0.059
					c-0.039-0.018-0.084-0.026-0.138-0.026c-0.17,0-0.293,0.093-0.385,0.273v0.771h-0.107v-1.598h0.107V-35.046z"/>
				<path style="fill:#63635A;" d="M36.41-34.643c0.008,0.048,0.02,0.095,0.035,0.143c0.024,0.059,0.055,0.109,0.099,0.152
					c0.039,0.05,0.085,0.078,0.142,0.104c0.058,0.024,0.117,0.038,0.185,0.038c0.062,0,0.124-0.015,0.18-0.038
					c0.037-0.014,0.067-0.038,0.104-0.06v0.124c-0.019,0.013-0.046,0.02-0.062,0.023c-0.076,0.033-0.146,0.052-0.23,0.052
					c-0.081,0-0.153-0.019-0.228-0.048c-0.067-0.027-0.128-0.075-0.182-0.123c-0.056-0.057-0.091-0.115-0.116-0.185
					c-0.026-0.071-0.044-0.143-0.044-0.228v-0.001c0-0.074,0.018-0.15,0.044-0.22c0.025-0.066,0.06-0.13,0.116-0.185
					c0.054-0.055,0.114-0.099,0.189-0.13c0.066-0.032,0.143-0.05,0.228-0.05c0.033,0,0.07,0.012,0.109,0.02
					c0.035,0.014,0.07,0.035,0.116,0.062c0.052,0.032,0.094,0.072,0.124,0.112c0.031,0.046,0.058,0.107,0.089,0.183
					c0.021,0.075,0.026,0.16,0.026,0.256H36.41z M36.862-35.169c-0.063,0-0.122,0.016-0.184,0.037
					c-0.053,0.022-0.098,0.062-0.14,0.101c-0.041,0.047-0.076,0.096-0.094,0.151c-0.016,0.052-0.027,0.091-0.035,0.142h0.813
					c-0.004-0.025-0.011-0.08-0.034-0.149c-0.009-0.047-0.031-0.088-0.054-0.121c-0.027-0.037-0.046-0.062-0.066-0.082
					c-0.023-0.019-0.048-0.033-0.075-0.043c-0.025-0.016-0.047-0.02-0.063-0.027c-0.017,0-0.03-0.006-0.05-0.006
					C36.87-35.167,36.866-35.169,36.862-35.169z"/>
				<path style="fill:#63635A;" d="M38.22-35.142c-0.024,0-0.051,0-0.076,0.003c-0.023,0-0.063,0.01-0.101,0.029
					c-0.046,0.019-0.083,0.044-0.118,0.074c-0.034,0.03-0.068,0.075-0.106,0.137c-0.033,0.07-0.057,0.141-0.074,0.225v0.542h-0.105
					v-1.109h0.105v0.206v0.096c0.064-0.126,0.146-0.212,0.225-0.254c0.081-0.044,0.162-0.063,0.251-0.063V-35.142z"/>
				<path style="fill:#63635A;" d="M38.248-34.643c0.003,0.048,0.017,0.095,0.036,0.143c0.02,0.059,0.05,0.109,0.093,0.152
					c0.042,0.05,0.09,0.078,0.146,0.104c0.054,0.024,0.114,0.038,0.18,0.038c0.064,0,0.128-0.015,0.186-0.038
					c0.034-0.014,0.068-0.038,0.095-0.06v0.124c-0.02,0.013-0.041,0.02-0.059,0.023c-0.067,0.033-0.144,0.052-0.227,0.052
					c-0.08,0-0.159-0.019-0.229-0.048c-0.067-0.027-0.132-0.075-0.182-0.123c-0.052-0.057-0.085-0.115-0.118-0.185
					c-0.025-0.071-0.041-0.143-0.041-0.228v-0.001c0-0.074,0.016-0.15,0.041-0.22c0.033-0.066,0.066-0.13,0.121-0.185
					c0.052-0.055,0.118-0.099,0.183-0.13c0.069-0.032,0.148-0.05,0.229-0.05c0.035,0,0.069,0.012,0.115,0.02
					c0.029,0.014,0.07,0.035,0.121,0.062c0.042,0.032,0.075,0.072,0.119,0.112c0.031,0.046,0.057,0.107,0.076,0.183
					c0.024,0.075,0.034,0.16,0.034,0.256H38.248z M38.698-35.169c-0.07,0-0.122,0.016-0.183,0.037
					c-0.056,0.022-0.104,0.062-0.146,0.101c-0.035,0.047-0.065,0.096-0.085,0.151c-0.02,0.052-0.033,0.091-0.036,0.142h0.811
					c0-0.025-0.012-0.08-0.031-0.149c-0.015-0.047-0.035-0.088-0.063-0.121c-0.022-0.037-0.04-0.062-0.059-0.082
					c-0.025-0.019-0.049-0.033-0.075-0.043c-0.027-0.016-0.05-0.02-0.066-0.027c-0.013,0-0.032-0.006-0.05-0.006
					C38.711-35.167,38.703-35.169,38.698-35.169z"/>
			</g>
		</g>
		<polygon style="fill:#63635A;" points="19.2,-34.469 15.338,-34.458 15.338,-34.571 19.2,-34.583 		"/>
	</g>
	<g>
		<path style="fill-rule:evenodd;clip-rule:evenodd;fill:#565169;" d="M2.042-59.734c0.034-5.416,2.625-10.248,6.653-13.42
			c-2.447,2.996-2.481,6.626-1.793,8.932c1.092,3.665,3.433,7.627,14.042,7.787c2.812,0.041,7.196,0.196,8.136,3.342
			c0.798,2.673-0.73,5.585-3.997,6.861C15.318-42.416,1.966-47.564,2.042-59.734L2.042-59.734z"/>
		<path style="fill-rule:evenodd;clip-rule:evenodd;fill:#63B0B8;" d="M36.628-53.672c-0.076-0.46-0.179-0.91-0.31-1.342
			c-1.219-4.094-4.43-7.904-14.665-8.263c-2.69-0.123-7.451-0.076-8.377-3.18c-0.745-2.499,1.755-4.478,4.002-5.02
			C26.186-73.624,40.278-64.909,36.628-53.672L36.628-53.672z"/>
	</g>
	<g>
		<path style="fill:#565169;" d="M2.42-38.323H3.82c0.053,0.398,0.206,0.679,0.459,0.839c0.267,0.187,0.633,0.279,1.1,0.279
			c0.413,0,0.726-0.072,0.939-0.22c0.213-0.146,0.319-0.359,0.319-0.64c0-0.427-0.599-0.772-1.798-1.038l-0.04-0.02l-0.16-0.041
			c-0.68-0.146-1.133-0.299-1.359-0.459c-0.267-0.147-0.453-0.359-0.559-0.64c-0.133-0.239-0.2-0.546-0.2-0.92
			c0-0.652,0.227-1.166,0.68-1.539c0.453-0.359,1.113-0.539,1.979-0.539c0.813,0,1.439,0.187,1.879,0.56
			c0.453,0.413,0.693,0.953,0.72,1.619H6.978c-0.307,0-0.526-0.14-0.66-0.421c-0.067-0.132-0.16-0.245-0.28-0.339
			c-0.24-0.173-0.567-0.26-0.98-0.26c-0.4,0-0.687,0.073-0.859,0.219c-0.2,0.147-0.3,0.354-0.3,0.62c0,0.36,0.386,0.627,1.159,0.8
			c0.227,0.067,0.393,0.106,0.5,0.121c0.24,0.079,0.45,0.143,0.63,0.189c0.18,0.046,0.323,0.083,0.43,0.109
			c0.187,0.08,0.373,0.16,0.56,0.24c0.266,0.16,0.472,0.366,0.619,0.619c0.147,0.279,0.22,0.587,0.22,0.92
			c0,0.719-0.24,1.278-0.72,1.679c-0.479,0.373-1.159,0.56-2.038,0.56c-0.907,0-1.586-0.193-2.039-0.58
			C2.727-36.991,2.46-37.564,2.42-38.323z"/>
		<path style="fill:#565169;" d="M12.934-41.502v3.118c0,0.947-0.247,1.567-0.74,1.859c-0.493,0.293-1.033,0.44-1.619,0.44
			c-0.573-0.028-1.097-0.187-1.569-0.481c-0.474-0.293-0.71-0.899-0.71-1.819v-3.118h1.399v3.399c0,0.319,0.093,0.552,0.28,0.699
			c0.186,0.146,0.399,0.22,0.639,0.22c0.24,0,0.456-0.073,0.65-0.22c0.192-0.147,0.289-0.38,0.289-0.699v-2.719
			c0-0.187,0.063-0.347,0.19-0.479c0.126-0.133,0.29-0.201,0.49-0.201H12.934z"/>
		<path style="fill:#565169;" d="M14.513-34.906c0,0.187-0.067,0.347-0.201,0.479c-0.133,0.133-0.292,0.2-0.479,0.2h-0.68v-4.977
			c0-0.933,0.273-1.569,0.819-1.909c0.546-0.34,1.14-0.51,1.779-0.51c0.333,0,0.67,0.063,1.009,0.19
			c0.339,0.126,0.609,0.311,0.809,0.549c0.4,0.521,0.6,1.188,0.6,1.999c0,0.839-0.2,1.52-0.6,2.039
			c-0.399,0.507-0.913,0.76-1.539,0.76c-0.333,0-0.626-0.061-0.879-0.181c-0.268-0.133-0.48-0.34-0.64-0.619V-34.906z
			 M16.791-38.824c0-0.52-0.1-0.919-0.3-1.199c-0.2-0.279-0.486-0.419-0.859-0.419c-0.36,0-0.639,0.14-0.839,0.419
			c-0.187,0.254-0.279,0.653-0.279,1.199c0,0.507,0.099,0.887,0.299,1.14c0.2,0.28,0.486,0.42,0.859,0.42
			c0.347,0,0.62-0.14,0.819-0.42C16.691-37.963,16.791-38.343,16.791-38.824z"/>
		<path style="fill:#565169;" d="M18.41-36.185v-2.578c0-0.519,0.077-0.957,0.23-1.309c0.154-0.354,0.363-0.637,0.63-0.851
			c0.252-0.198,0.549-0.346,0.89-0.439c0.34-0.093,0.689-0.141,1.05-0.141c0.026,0,0.059,0,0.099,0c0.04,0,0.073,0,0.1,0v1.42
			h-0.459c-0.386,0-0.673,0.094-0.86,0.28c-0.187,0.186-0.278,0.479-0.278,0.878v2.739H18.41z"/>
		<path style="fill:#565169;" d="M25.245-37.824h1.001c-0.147,0.56-0.428,0.986-0.84,1.279c-0.413,0.307-0.933,0.46-1.561,0.46
			c-0.759,0-1.352-0.247-1.777-0.741c-0.428-0.478-0.64-1.165-0.64-2.058c0-0.853,0.206-1.52,0.62-1.999
			c0.426-0.492,1.018-0.739,1.778-0.739c0.8,0,1.418,0.24,1.858,0.72c0.426,0.493,0.641,1.18,0.641,2.059c0,0.054,0,0.1,0,0.14
			c0,0.04,0,0.067,0,0.08c0,0.067-0.008,0.113-0.021,0.14h-3.458c0.013,0.413,0.112,0.72,0.299,0.92
			c0.174,0.213,0.434,0.32,0.78,0.32c0.227,0,0.42-0.048,0.58-0.141c0.039-0.014,0.075-0.036,0.11-0.07
			c0.033-0.033,0.069-0.07,0.108-0.109c0.014-0.041,0.063-0.093,0.15-0.159C24.962-37.791,25.084-37.824,25.245-37.824z
			 M22.847-39.382h2.039c-0.027-0.36-0.12-0.626-0.279-0.801c-0.175-0.185-0.42-0.279-0.741-0.279c-0.293,0-0.532,0.095-0.72,0.279
			C22.959-39.996,22.86-39.73,22.847-39.382z"/>
		<path style="fill:#565169;" d="M31.181-36.185h-1.379v-3.118v-0.279c0-0.319-0.096-0.553-0.289-0.699
			c-0.194-0.147-0.41-0.22-0.649-0.22c-0.24,0-0.453,0.072-0.641,0.22c-0.187,0.146-0.279,0.38-0.279,0.699v3.397h-1.399v-3.118
			c0-0.905,0.236-1.512,0.71-1.817c0.473-0.308,0.995-0.475,1.569-0.501c0.306,0,0.606,0.033,0.899,0.101
			c0.293,0.066,0.56,0.199,0.8,0.4c0.199-0.175,0.436-0.298,0.71-0.371c0.273-0.072,0.556-0.116,0.849-0.13
			c0.586,0,1.126,0.153,1.619,0.46c0.493,0.307,0.739,0.927,0.739,1.858v3.118h-0.7c-0.199,0-0.362-0.063-0.488-0.19
			c-0.127-0.126-0.19-0.289-0.19-0.488v-2.719c0-0.319-0.097-0.553-0.29-0.699c-0.192-0.147-0.41-0.22-0.649-0.22
			c-0.24,0-0.456,0.072-0.649,0.22c-0.193,0.146-0.291,0.38-0.291,0.699v0.279V-36.185z"/>
		<path style="fill:#565169;" d="M38.516-37.824h1.001c-0.147,0.56-0.428,0.986-0.84,1.279c-0.413,0.307-0.933,0.46-1.561,0.46
			c-0.759,0-1.352-0.247-1.778-0.741c-0.427-0.478-0.639-1.165-0.639-2.058c0-0.853,0.206-1.52,0.62-1.999
			c0.426-0.492,1.018-0.739,1.778-0.739c0.799,0,1.418,0.24,1.858,0.72c0.426,0.493,0.641,1.18,0.641,2.059c0,0.054,0,0.1,0,0.14
			c0,0.04,0,0.067,0,0.08c0,0.067-0.008,0.113-0.021,0.14h-3.458c0.013,0.413,0.112,0.72,0.3,0.92
			c0.173,0.213,0.433,0.32,0.779,0.32c0.227,0,0.42-0.048,0.58-0.141c0.039-0.014,0.075-0.036,0.11-0.07
			c0.033-0.033,0.069-0.07,0.108-0.109c0.014-0.041,0.063-0.093,0.15-0.159C38.233-37.791,38.356-37.824,38.516-37.824z
			 M36.119-39.382h2.039c-0.026-0.36-0.12-0.626-0.279-0.801c-0.175-0.185-0.42-0.279-0.741-0.279c-0.293,0-0.532,0.095-0.719,0.279
			C36.231-39.996,36.131-39.73,36.119-39.382z"/>
	</g>
</g>
<g>
	<defs>
		<filter id="Adobe_OpacityMaskFilter" filterUnits="userSpaceOnUse" x="-12.025" y="-72.54" width="43.658" height="37.117">
			<feColorMatrix  type="matrix" values="1 0 0 0 0  0 1 0 0 0  0 0 1 0 0  0 0 0 1 0"/>
		</filter>
	</defs>
	<mask maskUnits="userSpaceOnUse" x="-12.025" y="-72.54" width="43.658" height="37.117" id="SVGID_1_">
		<g style="filter:url(#Adobe_OpacityMaskFilter);">
			
				<linearGradient id="SVGID_00000066491977971894622000000014260596794323611324_" gradientUnits="userSpaceOnUse" x1="60.8714" y1="-35.9084" x2="61.5986" y2="-50.8855" gradientTransform="matrix(-0.4308 -0.9968 -1.1156 0.2636 -17.7639 20.4647)">
				<stop  offset="0.2615" style="stop-color:#000000"/>
				<stop  offset="0.3242" style="stop-color:#0A0A0A"/>
				<stop  offset="0.4296" style="stop-color:#242424"/>
				<stop  offset="0.5646" style="stop-color:#4E4E4E"/>
				<stop  offset="0.724" style="stop-color:#898989"/>
				<stop  offset="0.9019" style="stop-color:#D3D3D3"/>
				<stop  offset="1" style="stop-color:#FFFFFF"/>
			</linearGradient>
			<polygon style="fill:url(#SVGID_00000066491977971894622000000014260596794323611324_);" points="-17.694,-67.873 -1.45,-30.249 
				39.427,-39.916 23.179,-77.525 			"/>
		</g>
	</mask>
	
		<radialGradient id="SVGID_00000168076344465396418760000010026640462027787912_" cx="62.0536" cy="-49.6485" r="16.6236" gradientTransform="matrix(-0.4504 -1.0422 -1.1871 0.2806 -21.4546 23.5824)" gradientUnits="userSpaceOnUse">
		<stop  offset="0.3631" style="stop-color:#000000"/>
		<stop  offset="0.8738" style="stop-color:#FFFFFF"/>
	</radialGradient>
	<path style="mask:url(#SVGID_1_);fill:url(#SVGID_00000168076344465396418760000010026640462027787912_);" d="M2.062-71.902
		C-9.22-69.233-14.876-59.045-10.595-49.16c4.278,9.899,16.865,15.764,28.13,13.089c11.269-2.654,16.955-12.831,12.67-22.727
		C25.936-68.691,13.314-74.557,2.062-71.902z"/>
	<path style="fill:#FFFFFF;" d="M10.271-74.278C2.563-71.664-0.424-60.501,2.42-54.132c3.368,7.541,12.142,10.986,20.1,9.247
		c8.135-1.778,10.666-9.013,7.673-15.948C27.174-67.804,17.976-76.892,10.271-74.278z"/>
</g>
<g>
	<path style="fill:#FFFFFF;" d="M21.895-40.061c5.776-2.16,9.822-9.618,7.043-14.446c-3.813-6.625-20.25,1.813-20.921-13.688
		c-0.196-4.521-12.973,3.222-6.954,16.063C3.513-46.924,16.122-37.9,21.895-40.061z"/>
</g>
</svg>
