<?xml version="1.0" encoding="utf-8"?>
<!-- Generator: Adobe Illustrator 27.5.0, SVG Export Plug-In . SVG Version: 6.00 Build 0)  -->
<svg version="1.1" xmlns="http://www.w3.org/2000/svg" xmlns:xlink="http://www.w3.org/1999/xlink" x="0px" y="0px"
	 viewBox="0 0 500 500">
<g id="BACKGROUND">
</g>
<g id="OBJECTS">
	<g>
		<g>
			<linearGradient id="SVGID_1_" gradientUnits="userSpaceOnUse" x1="193.804" y1="179.5679" x2="306.7977" y2="304.7162">
				<stop  offset="0" style="stop-color:#4294FF"/>
				<stop  offset="0.1231" style="stop-color:#7C7BF7"/>
				<stop  offset="0.2568" style="stop-color:#B463F0"/>
				<stop  offset="0.372" style="stop-color:#DD51EB"/>
				<stop  offset="0.4627" style="stop-color:#F646E7"/>
				<stop  offset="0.5176" style="stop-color:#FF42E6"/>
				<stop  offset="0.6098" style="stop-color:#D343E3"/>
				<stop  offset="0.8167" style="stop-color:#6645DB"/>
				<stop  offset="1" style="stop-color:#0047D3"/>
			</linearGradient>
			<path style="fill:url(#SVGID_1_);" d="M217.615,324.989l26.322-26.323c3.348-3.348,8.777-3.348,12.125,0l26.323,26.323
				c3.348,3.348,8.777,3.348,12.125,0l76.502-76.502c3.688-3.688,3.688-9.668,0-13.356L256.678,120.797
				c-3.688-3.688-9.668-3.688-13.356,0L128.988,235.131c-3.688,3.688-3.688,9.668,0,13.356l76.502,76.502
				C208.838,328.337,214.267,328.337,217.615,324.989z"/>
			<path style="fill:#FFFFFF;" d="M250,271.664c42.625,0,79.585-24.249,97.842-59.703l-25.26-25.26
				c-10.38,30.111-38.945,51.753-72.582,51.753s-62.202-21.641-72.582-51.753l-25.26,25.26
				C170.415,247.415,207.375,271.664,250,271.664z"/>

				<linearGradient id="SVGID_00000142134052271394354920000003232843111095939763_" gradientUnits="userSpaceOnUse" x1="273.8593" y1="241.869" x2="250.4501" y2="214.8585">
				<stop  offset="0" style="stop-color:#808080"/>
				<stop  offset="1" style="stop-color:#FFFFFF;stop-opacity:0"/>
			</linearGradient>
			<path style="opacity:0.7;fill:url(#SVGID_00000142134052271394354920000003232843111095939763_);" d="M250,271.664
				c42.625,0,79.585-24.249,97.842-59.703l-25.26-25.26c-10.38,30.111-38.945,51.753-72.582,51.753s-62.202-21.641-72.582-51.753
				l-25.26,25.26C170.415,247.415,207.375,271.664,250,271.664z"/>

				<radialGradient id="SVGID_00000169537508112257227380000013308356628265783721_" cx="224.04" cy="258.6154" r="85.7757" gradientTransform="matrix(0.984 -0.1783 0.0471 0.26 -8.5948 231.3018)" gradientUnits="userSpaceOnUse">
				<stop  offset="0" style="stop-color:#808080"/>
				<stop  offset="0.3761" style="stop-color:#B1B1B1;stop-opacity:0.6239"/>
				<stop  offset="1" style="stop-color:#FFFFFF;stop-opacity:0"/>
			</radialGradient>
			<path style="opacity:0.7;fill:url(#SVGID_00000169537508112257227380000013308356628265783721_);" d="M250,271.664
				c42.625,0,79.585-24.249,97.842-59.703l-25.26-25.26c-10.38,30.111-38.945,51.753-72.582,51.753s-62.202-21.641-72.582-51.753
				l-25.26,25.26C170.415,247.415,207.375,271.664,250,271.664z"/>

				<radialGradient id="SVGID_00000117669111953807264770000015248958853022191804_" cx="196.2791" cy="261.0164" r="41.504" gradientTransform="matrix(0.9963 -0.0859 0.0267 0.3096 -6.2403 197.0735)" gradientUnits="userSpaceOnUse">
				<stop  offset="0" style="stop-color:#808080"/>
				<stop  offset="0.3761" style="stop-color:#B1B1B1;stop-opacity:0.6239"/>
				<stop  offset="1" style="stop-color:#FFFFFF;stop-opacity:0"/>
			</radialGradient>
			<path style="opacity:0.7;fill:url(#SVGID_00000117669111953807264770000015248958853022191804_);" d="M250,271.664
				c42.625,0,79.585-24.249,97.842-59.703l-25.26-25.26c-10.38,30.111-38.945,51.753-72.582,51.753s-62.202-21.641-72.582-51.753
				l-25.26,25.26C170.415,247.415,207.375,271.664,250,271.664z"/>
			<path style="fill:#FFFFFF;" d="M250,271.664c42.625,0,79.585-24.249,97.842-59.703l-25.26-25.26
				c-4.334,12.571-11.845,23.657-21.564,32.317c-0.003,0.004-27.489,37.337-106.984,37.344
				C210.43,266.076,229.56,271.664,250,271.664z"/>

				<linearGradient id="SVGID_00000158727103065040651210000003629014070542661808_" gradientUnits="userSpaceOnUse" x1="259.8173" y1="330.8242" x2="226.9545" y2="308.7656">
				<stop  offset="0" style="stop-color:#0047D3"/>
				<stop  offset="0.1833" style="stop-color:#6645DB"/>
				<stop  offset="0.3902" style="stop-color:#D343E3"/>
				<stop  offset="0.4824" style="stop-color:#FF42E6"/>
				<stop  offset="0.5373" style="stop-color:#F646E7"/>
				<stop  offset="0.628" style="stop-color:#DD51EB"/>
				<stop  offset="0.7432" style="stop-color:#B463F0"/>
				<stop  offset="0.8769" style="stop-color:#7C7BF7"/>
				<stop  offset="1" style="stop-color:#4294FF"/>
			</linearGradient>
			<path style="fill:url(#SVGID_00000158727103065040651210000003629014070542661808_);" d="M272.742,327.5l-19.553-19.553
				c-1.761-1.761-4.616-1.761-6.377,0L227.258,327.5H272.742z"/>
		</g>
		<text transform="matrix(1 0 0 1 215 361)" style="font-size:30px; fill:#5222d0">HV01</text>

    <text transform="matrix(1 0 0 1 200 385)" style="font-size:15px; fill:#5222d0">CONSULTORIA</text>
	</g>
</g>

</svg>
